<?xml version="1.0" encoding="utf-8"?>
<!-- Generator: Adobe Illustrator 19.1.0, SVG Export Plug-In . SVG Version: 6.00 Build 0)  -->
<svg version="1.1" id="Layer_1" xmlns="http://www.w3.org/2000/svg" xmlns:xlink="http://www.w3.org/1999/xlink" x="0px" y="0px"
	 viewBox="0 0 70.9 66.7" style="enable-background:new 0 0 70.9 66.7;" xml:space="preserve">
<style type="text/css">
	.st0{fill:#FFFFFF;}
</style>
<polygon class="st0" points="49.6,43.4 49.6,20.8 38.7,10.3 38.7,43.4 "/>
<g>
	<path class="st0" d="M0.4,30.7v12.7h12.9C7,42,1.9,37,0.4,30.7"/>
</g>
<polygon class="st0" points="28.3,43.4 28.3,32.7 18.1,43.4 "/>
<g>
	<path class="st0" d="M11.3,26.7c0,3.3,2.7,6,6.1,6h11v-12h-11C14,20.7,11.3,23.4,11.3,26.7"/>
	<path class="st0" d="M28.3,0H0.4v23.3c1.7-7.3,8.2-13,16.1-13h1.3l10.5,10.4l10.4-10.4H28.3V0z"/>
</g>
<polygon class="st0" points="38.7,0 38.7,10.3 70.9,10.3 70.9,10.4 70.9,10.4 70.9,0 "/>
<polygon class="st0" points="70.9,20.7 70.9,20.7 60,20.7 60,43.4 70.9,43.4 70.9,20.7 "/>
<g>
	<path class="st0" d="M10.3,60.7c-1.3,0-2.2,0.8-2.2,2.2c0,1.3,0.9,2.1,2.1,2.1c1.1,0,2.2-0.7,2.2-2.2
		C12.4,61.6,11.5,60.7,10.3,60.7 M10.2,61.6c0.6,0,0.8,0.6,0.8,1.2c0,0.7-0.3,1.2-0.8,1.2c-0.5,0-0.8-0.5-0.8-1.2
		C9.4,62.2,9.6,61.6,10.2,61.6 M14.8,64.9v-3.2h0.8v-0.9h-0.8v-0.2c0-0.4,0.2-0.7,0.6-0.7c0.2,0,0.3,0,0.4,0.1l0-1
		c-0.2-0.1-0.4-0.1-0.7-0.1c-0.4,0-0.8,0.1-1.1,0.4c-0.4,0.3-0.5,0.9-0.5,1.4v0.2H13v0.9h0.5v3.2H14.8z M19.1,64.9h1.3v-4.6H22v-1.1
		h-4.3v1.1h1.5V64.9z M25.9,63.2c0-0.1,0-0.3,0-0.5c0-1-0.5-2-1.8-2c-1.4,0-2.1,1.1-2.1,2.2c0,1.3,0.8,2.1,2.2,2.1
		c0.6,0,1.1-0.1,1.5-0.3l-0.2-0.9C25.2,64,24.9,64,24.4,64c-0.6,0-1.1-0.3-1.2-0.8H25.9z M23.3,62.4c0-0.3,0.3-0.8,0.8-0.8
		c0.6,0,0.7,0.5,0.7,0.8H23.3z M29.9,63.9c-0.2,0.1-0.4,0.1-0.7,0.1c-0.6,0-1.1-0.4-1.1-1.1c0-0.7,0.4-1.1,1.1-1.1
		c0.3,0,0.6,0.1,0.7,0.1l0.2-0.9c-0.3-0.1-0.6-0.2-1-0.2c-1.5,0-2.3,1-2.3,2.2c0,1.3,0.8,2.1,2.2,2.1c0.5,0,0.9-0.1,1.1-0.2
		L29.9,63.9z M31,64.9h1.3v-2.4c0-0.1,0-0.2,0-0.3c0.1-0.2,0.3-0.4,0.6-0.4c0.5,0,0.7,0.4,0.7,0.9v2.3h1.3v-2.4
		c0-1.2-0.6-1.8-1.4-1.8c-0.2,0-0.5,0.1-0.7,0.2c-0.2,0.1-0.4,0.2-0.5,0.4h0v-2.3H31V64.9z M36.1,64.9h1.3v-2.4c0-0.1,0-0.2,0.1-0.3
		c0.1-0.2,0.3-0.5,0.6-0.5c0.5,0,0.6,0.4,0.6,0.9v2.3H40v-2.4c0-1.2-0.6-1.8-1.5-1.8c-0.7,0-1.1,0.4-1.3,0.7h0l-0.1-0.6H36
		c0,0.4,0,0.8,0,1.3V64.9z M43.2,60.7c-1.3,0-2.2,0.8-2.2,2.2c0,1.3,0.9,2.1,2.1,2.1c1.1,0,2.2-0.7,2.2-2.2
		C45.3,61.6,44.4,60.7,43.2,60.7 M43.1,61.6c0.6,0,0.8,0.6,0.8,1.2c0,0.7-0.3,1.2-0.8,1.2c-0.5,0-0.8-0.5-0.8-1.2
		C42.3,62.2,42.5,61.6,43.1,61.6 M46.3,64.9h1.3v-6h-1.3V64.9z M50.7,60.7c-1.3,0-2.2,0.8-2.2,2.2c0,1.3,0.9,2.1,2.1,2.1
		c1.1,0,2.2-0.7,2.2-2.2C52.8,61.6,52,60.7,50.7,60.7 M50.7,61.6c0.6,0,0.8,0.6,0.8,1.2c0,0.7-0.3,1.2-0.8,1.2
		c-0.5,0-0.8-0.5-0.8-1.2C49.9,62.2,50.1,61.6,50.7,61.6 M56.7,60.8l0,0.5h0c-0.2-0.3-0.6-0.6-1.1-0.6c-1,0-1.9,0.8-1.9,2.2
		c0,1.2,0.7,2,1.7,2c0.5,0,0.9-0.2,1.1-0.5h0v0.3c0,0.8-0.5,1.1-1.1,1.1c-0.5,0-0.9-0.2-1.2-0.3l-0.3,1c0.4,0.2,0.9,0.3,1.5,0.3
		c0.6,0,1.2-0.1,1.7-0.5c0.5-0.4,0.6-1.1,0.6-1.8V62c0-0.6,0-1,0-1.2H56.7z M56.5,63.1c0,0.1,0,0.2,0,0.3c-0.1,0.3-0.3,0.5-0.7,0.5
		c-0.5,0-0.8-0.5-0.8-1.1c0-0.7,0.4-1.2,0.8-1.2c0.4,0,0.6,0.2,0.7,0.6c0,0.1,0,0.2,0,0.2V63.1z M58.5,60.8l1.5,3.7
		c0,0.1,0.1,0.2,0.1,0.2c0,0.1,0,0.1-0.1,0.2c-0.1,0.2-0.3,0.4-0.5,0.5c-0.2,0.1-0.4,0.2-0.6,0.2l0.3,1.1c0.3,0,0.8-0.2,1.2-0.6
		c0.5-0.4,0.9-1.1,1.4-2.7l1-2.7h-1.4l-0.5,2c-0.1,0.2-0.1,0.5-0.2,0.8h0c-0.1-0.2-0.1-0.5-0.2-0.8l-0.6-2H58.5z"/>
	<path class="st0" d="M4.2,54c-0.3,0.1-0.7,0.2-1.1,0.2c-1.1,0-1.8-0.7-1.8-1.8c0-1.3,0.8-1.9,1.8-1.9c0.5,0,0.8,0.1,1.1,0.2l0.3-1
		c-0.2-0.1-0.7-0.3-1.4-0.3c-1.7,0-3.1,1.1-3.1,3c0,1.6,1,2.8,3,2.8c0.7,0,1.2-0.1,1.5-0.2L4.2,54z M8.9,55.2c0-0.2-0.1-0.6-0.1-1
		v-1.4c0-1-0.4-1.8-1.8-1.8c-0.7,0-1.3,0.2-1.6,0.4l0.2,0.8c0.3-0.2,0.7-0.3,1.1-0.3c0.6,0,0.7,0.3,0.7,0.5v0.1
		c-1.5,0-2.4,0.5-2.4,1.6c0,0.7,0.5,1.3,1.3,1.3c0.5,0,0.9-0.2,1.2-0.5h0l0.1,0.4H8.9z M7.6,53.7c0,0.1,0,0.2,0,0.2
		c-0.1,0.3-0.3,0.5-0.7,0.5c-0.3,0-0.5-0.2-0.5-0.5c0-0.5,0.5-0.7,1.2-0.6V53.7z M10,55.2h1.3v-2.4c0-0.1,0-0.2,0-0.3
		c0.1-0.2,0.3-0.5,0.6-0.5c0.5,0,0.6,0.4,0.6,0.9v2.3h1.3v-2.4c0-1.2-0.6-1.8-1.5-1.8c-0.7,0-1.1,0.4-1.3,0.7h0l-0.1-0.6H10
		c0,0.4,0,0.8,0,1.3V55.2z M16.2,55.2l0.1-0.6h0c0.3,0.5,0.8,0.7,1.2,0.7c0.9,0,1.9-0.7,1.9-2.2c0-1.3-0.7-2.1-1.7-2.1
		c-0.6,0-1,0.2-1.2,0.6h0v-2.3h-1.3V54c0,0.5,0,1,0,1.2H16.2z M16.4,52.9c0-0.1,0-0.2,0-0.2c0.1-0.4,0.4-0.6,0.7-0.6
		c0.6,0,0.9,0.5,0.9,1.1c0,0.7-0.3,1.2-0.9,1.2c-0.4,0-0.7-0.3-0.7-0.6c0-0.1,0-0.1,0-0.2V52.9z M24,53.6c0-0.1,0-0.3,0-0.5
		c0-1-0.5-2-1.8-2c-1.4,0-2.1,1.1-2.1,2.2c0,1.3,0.8,2.1,2.2,2.1c0.6,0,1.1-0.1,1.5-0.2l-0.2-0.9c-0.3,0.1-0.7,0.2-1.1,0.2
		c-0.6,0-1.1-0.3-1.2-0.8H24z M21.3,52.7c0-0.3,0.3-0.8,0.8-0.8c0.6,0,0.7,0.5,0.7,0.8H21.3z M25,55.2h1.3v-2.1c0-0.1,0-0.2,0-0.3
		c0.1-0.4,0.4-0.6,0.9-0.6c0.1,0,0.3,0,0.3,0V51c-0.1,0-0.2,0-0.3,0c-0.4,0-0.9,0.3-1.1,0.8h0l0-0.8H25c0,0.4,0,0.7,0,1.3V55.2z
		 M28.4,55.2h1.3v-2.1c0-0.1,0-0.2,0-0.3c0.1-0.4,0.4-0.6,0.9-0.6c0.1,0,0.3,0,0.3,0V51c-0.1,0-0.2,0-0.3,0c-0.4,0-0.9,0.3-1.1,0.8
		h0l0-0.8h-1.1c0,0.4,0,0.7,0,1.3V55.2z M35.2,55.2c0-0.2-0.1-0.6-0.1-1v-1.4c0-1-0.4-1.8-1.8-1.8c-0.7,0-1.3,0.2-1.6,0.4l0.2,0.8
		c0.3-0.2,0.7-0.3,1.1-0.3c0.6,0,0.7,0.3,0.7,0.5v0.1c-1.5,0-2.4,0.5-2.4,1.6c0,0.7,0.5,1.3,1.3,1.3c0.5,0,0.9-0.2,1.2-0.5h0
		l0.1,0.4H35.2z M33.9,53.7c0,0.1,0,0.2,0,0.2c-0.1,0.3-0.3,0.5-0.7,0.5c-0.3,0-0.5-0.2-0.5-0.5c0-0.5,0.5-0.7,1.2-0.6V53.7z
		 M38,55.2h1.3v-5.6H38V55.2z M40.6,55.2h1.3v-2.4c0-0.1,0-0.2,0.1-0.3c0.1-0.2,0.3-0.5,0.6-0.5c0.5,0,0.6,0.4,0.6,0.9v2.3h1.3v-2.4
		c0-1.2-0.6-1.8-1.5-1.8c-0.7,0-1.1,0.4-1.3,0.7h0l-0.1-0.6h-1.1c0,0.4,0,0.8,0,1.3V55.2z M45.4,55c0.3,0.2,0.8,0.3,1.3,0.3
		c1.2,0,1.8-0.6,1.8-1.3c0-0.6-0.3-1-1.1-1.3c-0.5-0.2-0.7-0.3-0.7-0.5c0-0.2,0.2-0.3,0.5-0.3c0.4,0,0.7,0.1,0.9,0.2l0.2-0.9
		c-0.3-0.1-0.7-0.2-1.2-0.2c-1,0-1.7,0.6-1.7,1.3c0,0.5,0.3,0.9,1.2,1.2c0.5,0.2,0.6,0.3,0.6,0.5c0,0.2-0.2,0.3-0.5,0.3
		c-0.4,0-0.9-0.2-1.1-0.3L45.4,55z M49.7,50.2v0.9h-0.5V52h0.5v1.7c0,0.6,0.1,1,0.4,1.2c0.2,0.2,0.5,0.4,1,0.4c0.4,0,0.7,0,0.8-0.1
		l0-1c-0.1,0-0.2,0-0.4,0c-0.4,0-0.5-0.2-0.5-0.7V52h0.9v-0.9h-0.9v-1.2L49.7,50.2z M54.1,51.1h-1.3v4.1h1.3V51.1z M53.5,49.3
		c-0.4,0-0.7,0.3-0.7,0.6c0,0.4,0.3,0.6,0.7,0.6c0.4,0,0.7-0.3,0.7-0.6C54.2,49.6,53.9,49.3,53.5,49.3 M55.5,50.2v0.9H55V52h0.5v1.7
		c0,0.6,0.1,1,0.4,1.2c0.2,0.2,0.5,0.4,1,0.4c0.4,0,0.7,0,0.8-0.1l0-1c-0.1,0-0.2,0-0.4,0c-0.4,0-0.5-0.2-0.5-0.7V52h0.9v-0.9h-0.9
		v-1.2L55.5,50.2z M62.5,51.1h-1.3v2.4c0,0.1,0,0.2,0,0.3c-0.1,0.2-0.3,0.4-0.6,0.4c-0.4,0-0.6-0.4-0.6-1v-2.2h-1.3v2.4
		c0,1.3,0.6,1.8,1.4,1.8c0.7,0,1.1-0.4,1.3-0.7h0l0.1,0.6h1.1c0-0.3,0-0.8,0-1.3V51.1z M64,50.2v0.9h-0.5V52H64v1.7
		c0,0.6,0.1,1,0.4,1.2c0.2,0.2,0.5,0.4,1,0.4c0.4,0,0.7,0,0.8-0.1l0-1c-0.1,0-0.2,0-0.4,0c-0.4,0-0.5-0.2-0.5-0.7V52h0.9v-0.9h-0.9
		v-1.2L64,50.2z M70.7,53.6c0-0.1,0-0.3,0-0.5c0-1-0.5-2-1.8-2c-1.4,0-2.1,1.1-2.1,2.2c0,1.3,0.8,2.1,2.2,2.1c0.6,0,1.1-0.1,1.5-0.2
		l-0.2-0.9c-0.3,0.1-0.7,0.2-1.1,0.2c-0.6,0-1.1-0.3-1.2-0.8H70.7z M68,52.7c0-0.3,0.3-0.8,0.8-0.8c0.6,0,0.7,0.5,0.7,0.8H68z"/>
</g>
</svg>
